ffmpeg version 4.2.4-1ubuntu0.1 Copyright (c) 2000-2020 the FFmpeg developers
  built with gcc 9 (Ubuntu 9.3.0-10ubuntu2)
  configuration: --prefix=/usr --extra-version=1ubuntu0.1 --toolchain=hardened --libdir=/usr/lib/x86_64-linux-gnu --incdir=/usr/include/x86_64-linux-gnu --arch=amd64 --enable-gpl --disable-stripping --enable-avresample --disable-filter=resample --enable-avisynth --enable-gnutls --enable-ladspa --enable-libaom --enable-libass --enable-libbluray --enable-libbs2b --enable-libcaca --enable-libcdio --enable-libcodec2 --enable-libflite --enable-libfontconfig --enable-libfreetype --enable-libfribidi --enable-libgme --enable-libgsm --enable-libjack --enable-libmp3lame --enable-libmysofa --enable-libopenjpeg --enable-libopenmpt --enable-libopus --enable-libpulse --enable-librsvg --enable-librubberband --enable-libshine --enable-libsnappy --enable-libsoxr --enable-libspeex --enable-libssh --enable-libtheora --enable-libtwolame --enable-libvidstab --enable-libvorbis --enable-libvpx --enable-libwavpack --enable-libwebp --enable-libx265 --enable-libxml2 --enable-libxvid --enable-libzmq --enable-libzvbi --enable-lv2 --enable-omx --enable-openal --enable-opencl --enable-opengl --enable-sdl2 --enable-libdc1394 --enable-libdrm --enable-libiec61883 --enable-nvenc --enable-chromaprint --enable-frei0r --enable-libx264 --enable-shared
  WARNING: library configuration mismatch
  avcodec     configuration: --prefix=/usr --extra-version=1ubuntu0.1 --toolchain=hardened --libdir=/usr/lib/x86_64-linux-gnu --incdir=/usr/include/x86_64-linux-gnu --arch=amd64 --enable-gpl --disable-stripping --enable-avresample --disable-filter=resample --enable-avisynth --enable-gnutls --enable-ladspa --enable-libaom --enable-libass --enable-libbluray --enable-libbs2b --enable-libcaca --enable-libcdio --enable-libcodec2 --enable-libflite --enable-libfontconfig --enable-libfreetype --enable-libfribidi --enable-libgme --enable-libgsm --enable-libjack --enable-libmp3lame --enable-libmysofa --enable-libopenjpeg --enable-libopenmpt --enable-libopus --enable-libpulse --enable-librsvg --enable-librubberband --enable-libshine --enable-libsnappy --enable-libsoxr --enable-libspeex --enable-libssh --enable-libtheora --enable-libtwolame --enable-libvidstab --enable-libvorbis --enable-libvpx --enable-libwavpack --enable-libwebp --enable-libx265 --enable-libxml2 --enable-libxvid --enable-libzmq --enable-libzvbi --enable-lv2 --enable-omx --enable-openal --enable-opencl --enable-opengl --enable-sdl2 --enable-libdc1394 --enable-libdrm --enable-libiec61883 --enable-nvenc --enable-chromaprint --enable-frei0r --enable-libx264 --enable-shared --enable-version3 --disable-doc --disable-programs --enable-libaribb24 --enable-liblensfun --enable-libopencore_amrnb --enable-libopencore_amrwb --enable-libtesseract --enable-libvo_amrwbenc
  libavutil      56. 31.100 / 56. 31.100
  libavcodec     58. 54.100 / 58. 54.100
  libavformat    58. 29.100 / 58. 29.100
  libavdevice    58.  8.100 / 58.  8.100
  libavfilter     7. 57.100 /  7. 57.100
  libavresample   4.  0.  0 /  4.  0.  0
  libswscale      5.  5.100 /  5.  5.100
  libswresample   3.  5.100 /  3.  5.100
  libpostproc    55.  5.100 / 55.  5.100
Input #0, image2pipe, from 'pipe:':
  Duration: N/A, bitrate: N/A
    Stream #0:0: Video: ppm, rgb24, 320x240, 20 fps, 20 tbr, 20 tbn, 20 tbc
Stream mapping:
  Stream #0:0 -> #0:0 (ppm (native) -> h264 (libx264))
[libx264 @ 0x5590179c8f40] using cpu capabilities: MMX2 SSE2Fast SSSE3 SSE4.2 AVX FMA3 BMI2 AVX2
[libx264 @ 0x5590179c8f40] profile High, level 1.3
[libx264 @ 0x5590179c8f40] 264 - core 155 r2917 0a84d98 - H.264/MPEG-4 AVC codec - Copyleft 2003-2018 - http://www.videolan.org/x264.html - options: cabac=1 ref=3 deblock=1:0:0 analyse=0x3:0x113 me=hex subme=7 psy=1 psy_rd=1.00:0.00 mixed_ref=1 me_range=16 chroma_me=1 trellis=1 8x8dct=1 cqm=0 deadzone=21,11 fast_pskip=1 chroma_qp_offset=-2 threads=7 lookahead_threads=1 sliced_threads=0 nr=0 decimate=1 interlaced=0 bluray_compat=0 constrained_intra=0 bframes=3 b_pyramid=2 b_adapt=1 b_bias=0 direct=1 weightb=1 open_gop=0 weightp=2 keyint=250 keyint_min=20 scenecut=40 intra_refresh=0 rc_lookahead=40 rc=abr mbtree=1 bitrate=400 ratetol=1.0 qcomp=0.60 qpmin=0 qpmax=69 qpstep=4 ip_ratio=1.40 aq=1:1.00
Output #0, mp4, to './mission_records/a1b483b7-1963-4aa1-b50b-4dab84ea0d88/video.mp4':
  Metadata:
    encoder         : Lavf58.29.100
    Stream #0:0: Video: h264 (libx264) (avc1 / 0x31637661), yuv420p, 320x240, q=-1--1, 400 kb/s, 20 fps, 10240 tbn, 20 tbc
    Metadata:
      encoder         : Lavc58.54.100 libx264
    Side data:
      cpb: bitrate max/min/avg: 0/0/400000 buffer size: 0 vbv_delay: -1
frame=   32 fps=0.0 q=0.0 size=       0kB time=00:00:00.00 bitrate=N/A speed=   0x    frame=   41 fps= 39 q=0.0 size=       0kB time=00:00:00.00 bitrate=N/A speed=   0x    frame=   50 fps= 32 q=0.0 size=       0kB time=00:00:00.00 bitrate=N/A speed=   0x    frame=   59 fps= 29 q=27.0 size=       0kB time=00:00:00.25 bitrate=   1.5kbits/s speed=0.121x    frame=   68 fps= 26 q=25.0 size=       0kB time=00:00:00.70 bitrate=   0.5kbits/s speed=0.267x    frame=   78 fps= 25 q=24.0 size=       0kB time=00:00:01.20 bitrate=   0.3kbits/s speed=0.378x    frame=   87 fps= 23 q=22.0 size=       0kB time=00:00:01.65 bitrate=   0.2kbits/s speed=0.445x    frame=   95 fps= 22 q=21.0 size=       0kB time=00:00:02.05 bitrate=   0.2kbits/s speed=0.485x    frame=  104 fps= 22 q=20.0 size=       0kB time=00:00:02.50 bitrate=   0.2kbits/s speed=0.527x    frame=  113 fps= 21 q=20.0 size=       0kB time=00:00:02.95 bitrate=   0.1kbits/s speed=0.561x    frame=  122 fps= 21 q=19.0 size=       0kB time=00:00:03.40 bitrate=   0.1kbits/s speed=0.588x    frame=  131 fps= 21 q=19.0 size=       0kB time=00:00:03.85 bitrate=   0.1kbits/s speed=0.611x    frame=  140 fps= 21 q=19.0 size=       0kB time=00:00:04.30 bitrate=   0.1kbits/s speed=0.631x    frame=  149 fps= 20 q=18.0 size=       0kB time=00:00:04.75 bitrate=   0.1kbits/s speed=0.648x    frame=  158 fps= 20 q=18.0 size=       0kB time=00:00:05.20 bitrate=   0.1kbits/s speed=0.663x    frame=  167 fps= 20 q=18.0 size=       0kB time=00:00:05.65 bitrate=   0.1kbits/s speed=0.675x    frame=  176 fps= 20 q=18.0 size=       0kB time=00:00:06.10 bitrate=   0.1kbits/s speed=0.685x    frame=  185 fps= 20 q=18.0 size=     256kB time=00:00:06.55 bitrate= 320.2kbits/s speed=0.695x    frame=  194 fps= 19 q=18.0 size=     256kB time=00:00:07.00 bitrate= 299.6kbits/s speed=0.702x    frame=  204 fps= 19 q=18.0 size=     256kB time=00:00:07.50 bitrate= 279.7kbits/s speed=0.712x    frame=  213 fps= 19 q=18.0 size=     256kB time=00:00:07.95 bitrate= 263.8kbits/s speed=0.718x    frame=  223 fps= 19 q=18.0 size=     256kB time=00:00:08.45 bitrate= 248.2kbits/s speed=0.727x    frame=  232 fps= 19 q=18.0 size=     256kB time=00:00:08.90 bitrate= 235.7kbits/s speed=0.733x    frame=  241 fps= 19 q=18.0 size=     256kB time=00:00:09.35 bitrate= 224.3kbits/s speed=0.739x    frame=  250 fps= 19 q=18.0 size=     256kB time=00:00:09.80 bitrate= 214.0kbits/s speed=0.744x    frame=  259 fps= 19 q=18.0 size=     256kB time=00:00:10.25 bitrate= 204.6kbits/s speed=0.749x    frame=  268 fps= 19 q=18.0 size=     256kB time=00:00:10.70 bitrate= 196.0kbits/s speed=0.752x    frame=  277 fps= 19 q=18.0 size=     256kB time=00:00:11.15 bitrate= 188.1kbits/s speed=0.756x    frame=  286 fps= 19 q=18.0 size=     512kB time=00:00:11.60 bitrate= 361.6kbits/s speed=0.761x    frame=  294 fps= 19 q=18.0 size=     512kB time=00:00:12.00 bitrate= 349.6kbits/s speed=0.762x    frame=  303 fps= 19 q=19.0 size=     512kB time=00:00:12.45 bitrate= 336.9kbits/s speed=0.766x    frame=  312 fps= 19 q=18.0 size=     512kB time=00:00:12.90 bitrate= 325.2kbits/s speed=0.77x    frame=  321 fps= 19 q=18.0 size=     512kB time=00:00:13.35 bitrate= 314.2kbits/s speed=0.773x    frame=  330 fps= 19 q=18.0 size=     512kB time=00:00:13.80 bitrate= 304.0kbits/s speed=0.777x    frame=  339 fps= 19 q=18.0 size=     512kB time=00:00:14.25 bitrate= 294.4kbits/s speed=0.779x    frame=  348 fps= 18 q=18.0 size=     512kB time=00:00:14.70 bitrate= 285.4kbits/s speed=0.781x    frame=  357 fps= 18 q=18.0 size=     512kB time=00:00:15.15 bitrate= 276.9kbits/s speed=0.783x    frame=  366 fps= 18 q=18.0 size=     512kB time=00:00:15.60 bitrate= 268.9kbits/s speed=0.784x    frame=  375 fps= 18 q=18.0 size=     512kB time=00:00:16.05 bitrate= 261.3kbits/s speed=0.787x    frame=  384 fps= 18 q=18.0 size=     512kB time=00:00:16.50 bitrate= 254.2kbits/s speed=0.789x    frame=  393 fps= 18 q=18.0 size=     768kB time=00:00:16.95 bitrate= 371.2kbits/s speed=0.791x    frame=  403 fps= 18 q=18.0 size=     768kB time=00:00:17.45 bitrate= 360.6kbits/s speed=0.794x    frame=  412 fps= 18 q=18.0 size=     768kB time=00:00:17.90 bitrate= 351.5kbits/s speed=0.795x    frame=  421 fps= 18 q=18.0 size=     768kB time=00:00:18.35 bitrate= 342.9kbits/s speed=0.797x    frame=  430 fps= 18 q=18.0 size=     768kB time=00:00:18.80 bitrate= 334.7kbits/s speed=0.799x    frame=  439 fps= 18 q=18.0 size=     768kB time=00:00:19.25 bitrate= 326.8kbits/s speed=0.801x    frame=  448 fps= 18 q=18.0 size=     768kB time=00:00:19.70 bitrate= 319.4kbits/s speed=0.803x    frame=  457 fps= 18 q=17.0 size=     768kB time=00:00:20.15 bitrate= 312.2kbits/s speed=0.804x    frame=  466 fps= 18 q=17.0 size=     768kB time=00:00:20.60 bitrate= 305.4kbits/s speed=0.805x    frame=  475 fps= 18 q=17.0 size=     768kB time=00:00:21.05 bitrate= 298.9kbits/s speed=0.806x    frame=  484 fps= 18 q=17.0 size=     768kB time=00:00:21.50 bitrate= 292.6kbits/s speed=0.807x    frame=  489 fps= 18 q=-1.0 Lsize=    1127kB time=00:00:24.30 bitrate= 379.9kbits/s speed=0.897x    
video:1121kB audio:0kB subtitle:0kB other streams:0kB global headers:0kB muxing overhead: 0.574677%
[libx264 @ 0x5590179c8f40] frame I:2     Avg QP:14.21  size: 20376
[libx264 @ 0x5590179c8f40] frame P:142   Avg QP: 9.53  size:  5333
[libx264 @ 0x5590179c8f40] frame B:345   Avg QP:15.19  size:  1011
[libx264 @ 0x5590179c8f40] consecutive B-frames:  4.3%  2.5%  7.4% 85.9%
[libx264 @ 0x5590179c8f40] mb I  I16..4: 23.5% 33.7% 42.8%
[libx264 @ 0x5590179c8f40] mb P  I16..4:  2.9%  0.9%  0.4%  P16..4: 55.8%  4.9% 11.2%  0.0%  0.0%    skip:23.8%
[libx264 @ 0x5590179c8f40] mb B  I16..4:  0.1%  0.0%  0.0%  B16..8: 21.4%  2.1%  2.0%  direct: 5.4%  skip:69.1%  L0:44.8% L1:50.4% BI: 4.8%
[libx264 @ 0x5590179c8f40] final ratefactor: 13.64
[libx264 @ 0x5590179c8f40] 8x8 transform intra:23.4% inter:46.3%
[libx264 @ 0x5590179c8f40] coded y,uvDC,uvAC intra: 40.9% 49.2% 41.5% inter: 18.8% 19.3% 12.6%
[libx264 @ 0x5590179c8f40] i16 v,h,dc,p:  8% 72% 20%  1%
[libx264 @ 0x5590179c8f40] i8 v,h,dc,ddl,ddr,vr,hd,vl,hu:  5% 25% 36%  6%  5%  4%  5%  4% 10%
[libx264 @ 0x5590179c8f40] i4 v,h,dc,ddl,ddr,vr,hd,vl,hu: 11% 31% 17%  5%  6%  5%  8%  7%  9%
[libx264 @ 0x5590179c8f40] i8c dc,h,v,p: 30% 64%  4%  1%
[libx264 @ 0x5590179c8f40] Weighted P-Frames: Y:12.7% UV:2.1%
[libx264 @ 0x5590179c8f40] ref P L0: 82.8%  5.6%  8.6%  2.7%  0.3%
[libx264 @ 0x5590179c8f40] ref B L0: 90.4%  7.8%  1.8%
[libx264 @ 0x5590179c8f40] ref B L1: 93.3%  6.7%
[libx264 @ 0x5590179c8f40] kb/s:375.21
